<?xml-stylesheet type="text/css" href="iconomagic.css"?>
<svg xmlns="http://www.w3.org/2000/svg" id="gear" class="icon" viewBox="0 0 100 100">
	<title>gear</title>
	<defs>
		<style>
			<![CDATA[
			/* your styles go here */
			]]>
		</style>
	</defs>
	<path id="cogwheel" class="clr-1" d="M92,57.64V42.26L80.36,40a31.79,31.79,0,0,0-1.88-4.48L85.1,25.7,74.22,14.83l-9.87,6.72a31.79,31.79,0,0,0-4.4-1.82L57.64,8H42.26L40,19.74a31.78,31.78,0,0,0-4.4,1.82L25.7,14.9,14.83,25.78l6.68,9.81a31.79,31.79,0,0,0-1.88,4.49L8,42.36V57.74l11.53,2.19a31.79,31.79,0,0,0,1.9,4.63L14.9,74.3,25.78,85.17l9.62-6.55a31.79,31.79,0,0,0,4.72,2L42.36,92H57.74l2.17-11.42a31.79,31.79,0,0,0,4.71-2L74.3,85.1,85.17,74.22l-6.59-9.68a31.78,31.78,0,0,0,1.9-4.63ZM50,68.15a18,18,0,1,1,18-18A18,18,0,0,1,50,68.15Z"/>
</svg>