<?xml-stylesheet type="text/css" href="iconomagic.css"?>
<svg xmlns="http://www.w3.org/2000/svg" id="bike" class="icon" viewBox="0 0 150 100">
	<title>bike</title>
	<defs>
		<style>
			<![CDATA[
			/* your styles go here */
			]]>
		</style>
	</defs>
	<path id="wheel-front" class="clr-1" d="M37.5,38.75l-.06-.06-.07.07a23.48,23.48,0,1,0,.13,0Zm0,40.75a17,17,0,0,1-17-16.87h17l17,0A17,17,0,0,1,37.5,79.5Z"/>
	<path id="wheel-back" class="clr-1" d="M136.5,62.63a23.94,23.94,0,0,0-23.94-23.87l-.06-.06-.06.06A23.87,23.87,0,1,0,136.5,62.69h0S136.5,62.65,136.5,62.63Zm-24,16.88a17,17,0,0,1-17-16.87h17.06l16.94,0A17,17,0,0,1,112.5,79.5Z"/>
	<polygon id="saddle" class="clr-1" points="38 21.31 38 27.56 54.26 27.56 48.01 21.31 38 21.31"/>
	<path id="frame" class="clr-1" d="M115.46,60.08l-13.31-21.3L99.77,35l-4.55-7.29-8.12-13h-21V21H82.39l4.18,6.69H54.26l-2.85,4.56-3.19,5.11-5.84,9.4L34,60.23l-3.67,6-1,1.57H73.89l1-1.57.07-.1,2.77-4.48,14.86-24,2.93,4.69L101,51.06h0L109.18,64a3.7,3.7,0,0,0,6.28-3.92Zm-45.57.3H42.52l4-6.3L56,38.76,58.24,35H85.58Z"/>
</svg>